<svg width="14" height="19" viewBox="0 0 14 19" fill="none" xmlns="http://www.w3.org/2000/svg">
<g filter="url(#filter0_d_25_13)">
<path d="M11.5998 0.800049H1.7998L5.08979 4.00005L4.51979 4.63005C4.15488 5.11522 3.82089 5.62289 3.51979 6.15005C3.22658 6.79123 3.002 7.46163 2.84979 8.15005C2.79319 8.85892 2.79319 9.57118 2.84979 10.28C2.88692 10.8364 2.98758 11.3866 3.14979 11.92C3.30056 12.4049 3.51225 12.8686 3.77979 13.3C4.06012 13.7384 4.39627 14.1384 4.77979 14.49C5.46517 14.9581 6.18756 15.3694 6.93979 15.72C6.56629 15.1711 6.25124 14.5846 5.99979 13.97C5.8742 13.4665 5.78067 12.9555 5.71979 12.44C5.66901 11.9117 5.64897 11.3808 5.65979 10.85C5.67961 10.4673 5.74336 10.0882 5.84979 9.72005C6.01268 9.24924 6.24893 8.80713 6.54979 8.41005C6.78741 8.08236 7.05525 7.77769 7.34979 7.50005C7.61757 7.23916 7.90146 6.99535 8.19979 6.77005L11.5998 10V0.800049Z" fill="white"/>
<path d="M10.5996 7.80005V1.80005H4.59962L6.44962 3.58005C6.30962 3.73005 6.11962 3.92005 6.00962 4.06005C5.72962 4.41005 5.56962 4.60005 5.39962 4.79005C5.22962 4.98005 5.13962 5.11005 5.01962 5.26005C4.88801 5.44247 4.76778 5.63283 4.65962 5.83005C4.54962 6.03005 4.42962 6.29005 4.28962 6.58005C4.14297 6.89924 4.03552 7.23502 3.96962 7.58005C3.89011 7.9091 3.83331 8.24322 3.79962 8.58005C3.78609 8.8332 3.78609 9.0869 3.79962 9.34005C3.77578 9.67296 3.77578 10.0071 3.79962 10.34C3.88823 10.9309 4.04945 11.5087 4.27962 12.06L4.73962 12.99C4.65043 12.2334 4.61034 11.4718 4.61962 10.71C4.69089 10.1112 4.85626 9.52734 5.10962 8.98005C5.15712 8.83341 5.22085 8.69254 5.29962 8.56005L5.65962 7.99005C5.86962 7.65005 6.30962 7.12005 6.41962 6.99005C6.71072 6.66147 7.02485 6.35402 7.35962 6.07005L8.14962 5.40005L10.5996 7.80005Z" fill="black"/>
</g>
<defs>
<filter id="filter0_d_25_13" x="-0.000195265" y="4.88758e-05" width="13.3998" height="18.5199" filterUnits="userSpaceOnUse" color-interpolation-filters="sRGB">
<feFlood flood-opacity="0" result="BackgroundImageFix"/>
<feColorMatrix in="SourceAlpha" type="matrix" values="0 0 0 0 0 0 0 0 0 0 0 0 0 0 0 0 0 0 127 0" result="hardAlpha"/>
<feOffset dy="1"/>
<feGaussianBlur stdDeviation="0.9"/>
<feColorMatrix type="matrix" values="0 0 0 0 0 0 0 0 0 0 0 0 0 0 0 0 0 0 0.65 0"/>
<feBlend mode="normal" in2="BackgroundImageFix" result="effect1_dropShadow_25_13"/>
<feBlend mode="normal" in="SourceGraphic" in2="effect1_dropShadow_25_13" result="shape"/>
</filter>
</defs>
</svg>
